<?xml version="1.0" encoding="UTF-8"?>
<svg xmlns="http://www.w3.org/2000/svg" xmlns:xlink="http://www.w3.org/1999/xlink" width="32pt" height="32pt" viewBox="0 0 32 32" version="1.1">
<g id="surface1">
<path style=" stroke:none;fill-rule:nonzero;fill:rgb(34.117647%,2.352941%,54.901961%);fill-opacity:1;" d="M 32 16 C 32 24.835938 24.835938 32 16 32 C 7.164062 32 0 24.835938 0 16 C 0 7.164062 7.164062 0 16 0 C 24.835938 0 32 7.164062 32 16 Z M 32 16 "/>
<path style=" stroke:none;fill-rule:nonzero;fill:rgb(48.235294%,75.686275%,26.27451%);fill-opacity:1;" d="M 10.132812 12.058594 L 12.890625 9.300781 C 13.089844 9.085938 13.085938 8.753906 12.878906 8.550781 C 12.671875 8.34375 12.339844 8.335938 12.128906 8.535156 L 9.367188 11.296875 C 9.160156 11.507812 9.160156 11.847656 9.371094 12.058594 C 9.582031 12.269531 9.921875 12.269531 10.132812 12.0625 Z M 10.132812 12.058594 "/>
<path style=" stroke:none;fill-rule:nonzero;fill:rgb(48.235294%,75.686275%,26.27451%);fill-opacity:1;" d="M 19.683594 9.445312 L 24.960938 9.445312 C 25.257812 9.445312 25.5 9.203125 25.5 8.90625 C 25.5 8.605469 25.257812 8.363281 24.960938 8.363281 L 19.683594 8.363281 C 19.382812 8.363281 19.140625 8.605469 19.140625 8.90625 C 19.140625 9.203125 19.382812 9.445312 19.683594 9.445312 Z M 19.683594 9.445312 "/>
<path style=" stroke:none;fill-rule:nonzero;fill:rgb(48.235294%,75.686275%,26.27451%);fill-opacity:1;" d="M 19.140625 8.90625 L 19.140625 11.675781 C 19.140625 11.976562 19.382812 12.21875 19.683594 12.21875 C 19.980469 12.21875 20.222656 11.976562 20.222656 11.675781 L 20.222656 8.90625 C 20.222656 8.605469 19.980469 8.363281 19.683594 8.363281 C 19.382812 8.363281 19.140625 8.605469 19.140625 8.90625 Z M 19.140625 8.90625 "/>
<path style=" stroke:none;fill-rule:nonzero;fill:rgb(48.235294%,75.686275%,26.27451%);fill-opacity:1;" d="M 24.578125 9.285156 L 27.171875 12.058594 C 27.382812 12.269531 27.722656 12.269531 27.933594 12.058594 C 28.140625 11.84375 28.140625 11.507812 27.933594 11.292969 L 25.34375 8.523438 C 25.132812 8.3125 24.789062 8.3125 24.578125 8.523438 C 24.371094 8.734375 24.371094 9.074219 24.578125 9.285156 Z M 24.578125 9.285156 "/>
<path style=" stroke:none;fill-rule:nonzero;fill:rgb(48.235294%,75.686275%,26.27451%);fill-opacity:1;" d="M 9.609375 15.832031 L 17.582031 15.832031 C 17.878906 15.832031 18.121094 15.589844 18.121094 15.289062 C 18.121094 14.992188 17.878906 14.75 17.582031 14.75 L 9.609375 14.75 C 9.3125 14.75 9.070312 14.992188 9.070312 15.289062 C 9.070312 15.589844 9.3125 15.832031 9.609375 15.832031 Z M 9.609375 15.832031 "/>
<path style=" stroke:none;fill-rule:nonzero;fill:rgb(48.235294%,75.686275%,26.27451%);fill-opacity:1;" d="M 12.605469 9.445312 L 17.71875 9.445312 C 18.019531 9.445312 18.261719 9.203125 18.261719 8.90625 C 18.261719 8.605469 18.019531 8.363281 17.71875 8.363281 L 12.605469 8.363281 C 12.308594 8.363281 12.066406 8.605469 12.066406 8.90625 C 12.066406 9.203125 12.308594 9.445312 12.605469 9.445312 Z M 12.605469 9.445312 "/>
<path style=" stroke:none;fill-rule:nonzero;fill:rgb(48.235294%,75.686275%,26.27451%);fill-opacity:1;" d="M 17.339844 18.378906 L 14.980469 20.738281 C 14.839844 20.875 14.785156 21.074219 14.835938 21.261719 C 14.886719 21.449219 15.03125 21.597656 15.21875 21.644531 C 15.40625 21.695312 15.609375 21.640625 15.742188 21.503906 L 18.101562 19.140625 C 18.3125 18.929688 18.308594 18.589844 18.101562 18.378906 C 17.890625 18.167969 17.550781 18.167969 17.339844 18.375 Z M 17.339844 18.378906 "/>
<path style=" stroke:none;fill-rule:nonzero;fill:rgb(48.235294%,75.686275%,26.27451%);fill-opacity:1;" d="M 19.140625 15.15625 L 19.140625 17.386719 C 19.140625 17.683594 19.382812 17.925781 19.683594 17.925781 C 19.980469 17.925781 20.222656 17.683594 20.222656 17.386719 L 20.222656 15.15625 C 20.222656 14.855469 19.980469 14.613281 19.683594 14.613281 C 19.382812 14.613281 19.140625 14.855469 19.140625 15.15625 Z M 19.140625 15.15625 "/>
<path style=" stroke:none;fill-rule:nonzero;fill:rgb(48.235294%,75.686275%,26.27451%);fill-opacity:1;" d="M 17.179688 15.289062 L 17.179688 18.652344 C 17.179688 18.953125 17.421875 19.195312 17.71875 19.195312 C 18.019531 19.195312 18.261719 18.953125 18.261719 18.652344 L 18.261719 15.289062 C 18.261719 14.992188 18.019531 14.75 17.71875 14.75 C 17.421875 14.75 17.179688 14.992188 17.179688 15.289062 Z M 17.179688 15.289062 "/>
<path style=" stroke:none;fill-rule:nonzero;fill:rgb(48.235294%,75.686275%,26.27451%);fill-opacity:1;" d="M 27.171875 18.378906 L 25.484375 20.0625 C 25.273438 20.273438 25.273438 20.617188 25.484375 20.828125 C 25.695312 21.039062 26.039062 21.039062 26.25 20.828125 L 27.933594 19.140625 C 28.132812 18.929688 28.128906 18.597656 27.921875 18.390625 C 27.714844 18.183594 27.382812 18.179688 27.171875 18.375 Z M 27.171875 18.378906 "/>
<path style=" stroke:none;fill-rule:nonzero;fill:rgb(48.235294%,75.686275%,26.27451%);fill-opacity:1;" d="M 27.011719 11.675781 L 27.011719 18.761719 C 27.011719 19.058594 27.253906 19.300781 27.554688 19.300781 C 27.851562 19.300781 28.09375 19.058594 28.09375 18.761719 L 28.09375 11.675781 C 28.09375 11.378906 27.851562 11.136719 27.554688 11.136719 C 27.253906 11.136719 27.011719 11.378906 27.011719 11.675781 Z M 27.011719 11.675781 "/>
<path style=" stroke:none;fill-rule:nonzero;fill:rgb(100%,100%,100%);fill-opacity:1;" d="M 21.636719 12.875 L 4.894531 12.875 C 4.597656 12.875 4.355469 13.117188 4.355469 13.414062 C 4.355469 13.714844 4.597656 13.957031 4.894531 13.957031 L 21.636719 13.957031 C 21.9375 13.957031 22.179688 13.714844 22.179688 13.414062 C 22.179688 13.117188 21.9375 12.875 21.636719 12.875 Z M 21.636719 12.875 "/>
<path style=" stroke:none;fill-rule:nonzero;fill:rgb(100%,100%,100%);fill-opacity:1;" d="M 4.355469 13.460938 L 4.355469 21.117188 C 4.355469 21.414062 4.597656 21.65625 4.894531 21.65625 C 5.195312 21.65625 5.4375 21.414062 5.4375 21.117188 L 5.4375 13.460938 C 5.4375 13.164062 5.195312 12.921875 4.894531 12.921875 C 4.597656 12.921875 4.355469 13.164062 4.355469 13.460938 Z M 4.355469 13.460938 "/>
<path style="fill:none;stroke-width:11;stroke-linecap:butt;stroke-linejoin:miter;stroke:rgb(100%,100%,100%);stroke-opacity:1;stroke-miterlimit:10;" d="M 136.561016 234.216006 C 136.561016 250.289653 123.520132 263.330537 107.446484 263.330537 C 91.372837 263.330537 78.331953 250.289653 78.331953 234.216006 C 78.331953 218.142358 91.372837 205.101475 107.446484 205.101475 C 123.520132 205.101475 136.561016 218.142358 136.561016 234.216006 Z M 136.561016 234.216006 " transform="matrix(0.0901612,0,0,0.0901612,0,0)"/>
<path style="fill:none;stroke-width:11;stroke-linecap:butt;stroke-linejoin:miter;stroke:rgb(100%,100%,100%);stroke-opacity:1;stroke-miterlimit:10;" d="M 269.092788 234.216006 C 269.092788 250.289653 256.095229 263.330537 240.021582 263.330537 C 223.904609 263.330537 210.907051 250.289653 210.907051 234.216006 C 210.907051 218.142358 223.904609 205.101475 240.021582 205.101475 C 256.095229 205.101475 269.092788 218.142358 269.092788 234.216006 Z M 269.092788 234.216006 " transform="matrix(0.0901612,0,0,0.0901612,0,0)"/>
<path style=" stroke:none;fill-rule:nonzero;fill:rgb(100%,100%,100%);fill-opacity:1;" d="M 4.890625 21.660156 L 6.925781 21.660156 C 7.222656 21.660156 7.464844 21.417969 7.464844 21.121094 C 7.464844 20.820312 7.222656 20.578125 6.925781 20.578125 L 4.890625 20.578125 C 4.589844 20.578125 4.347656 20.820312 4.347656 21.121094 C 4.347656 21.417969 4.589844 21.660156 4.890625 21.660156 Z M 4.890625 21.660156 "/>
<path style=" stroke:none;fill-rule:nonzero;fill:rgb(100%,100%,100%);fill-opacity:1;" d="M 21.097656 13.53125 L 21.097656 18.378906 C 21.097656 18.679688 21.339844 18.921875 21.636719 18.921875 C 21.9375 18.921875 22.179688 18.679688 22.179688 18.378906 L 22.179688 13.53125 C 22.179688 13.230469 21.9375 12.988281 21.636719 12.988281 C 21.339844 12.988281 21.097656 13.230469 21.097656 13.53125 Z M 21.097656 13.53125 "/>
<path style=" stroke:none;fill-rule:nonzero;fill:rgb(48.235294%,75.686275%,26.27451%);fill-opacity:1;" d="M 15.359375 20.582031 L 13.988281 20.582031 C 13.6875 20.582031 13.445312 20.824219 13.445312 21.125 C 13.445312 21.421875 13.6875 21.664062 13.988281 21.664062 L 15.359375 21.664062 C 15.660156 21.664062 15.902344 21.421875 15.902344 21.125 C 15.902344 20.824219 15.660156 20.582031 15.359375 20.582031 Z M 15.359375 20.582031 "/>
</g>
</svg>
